<svg width="8" height="32" viewBox="0 0 8 32" fill="none" xmlns="http://www.w3.org/2000/svg">
<path d="M3.99999 31.3334C2.94583 31.3334 2.04308 30.9578 1.29174 30.2064C0.54041 29.4551 0.165382 28.553 0.16666 27.5001C0.16666 26.4459 0.542327 25.5432 1.29366 24.7918C2.04499 24.0405 2.9471 23.6655 3.99999 23.6668C5.05416 23.6668 5.95691 24.0424 6.70824 24.7938C7.45958 25.5451 7.8346 26.4472 7.83333 27.5001C7.83333 28.5543 7.45766 29.457 6.70633 30.2083C5.95499 30.9597 5.05288 31.3347 3.99999 31.3334ZM3.99999 19.8334C2.94583 19.8334 2.04308 19.4578 1.29174 18.7064C0.54041 17.9551 0.165382 17.053 0.16666 16.0001C0.16666 14.9459 0.542327 14.0432 1.29366 13.2918C2.04499 12.5405 2.9471 12.1655 3.99999 12.1668C5.05416 12.1668 5.95691 12.5424 6.70824 13.2938C7.45958 14.0451 7.8346 14.9472 7.83333 16.0001C7.83333 17.0543 7.45766 17.957 6.70633 18.7083C5.95499 19.4597 5.05288 19.8347 3.99999 19.8334ZM3.99999 8.33342C2.94583 8.33342 2.04308 7.95775 1.29174 7.20642C0.54041 6.45508 0.165382 5.55297 0.16666 4.50008C0.16666 3.44592 0.542327 2.54317 1.29366 1.79183C2.04499 1.0405 2.9471 0.665474 3.99999 0.666751C5.05416 0.666751 5.95691 1.04242 6.70824 1.79375C7.45958 2.54508 7.8346 3.4472 7.83333 4.50008C7.83333 5.55425 7.45766 6.457 6.70633 7.20833C5.95499 7.95967 5.05288 8.3347 3.99999 8.33342Z" fill="white"/>
</svg>
